<svg xmlns="http://www.w3.org/2000/svg" viewBox="0 0 40 40" width="48" height="48">
	<path d="M20 0C8.955 0 0 8.954 0 20c0 11.047 8.955 20 20 20 11.047 0 20-8.953 20-20C40 8.954 31.047 0 20 0z"
	      fill="#6066b8"/>
	<path d="M14.371 9.793c1.901.014 2.578 2.196 3.46 3.522 1.12 2.238-1.592 3.008-2.3 4.567-.35 2.344 1.861 3.978 3.217 5.57 1.566 2.096 3.944 1.51 5.298-.386 1.827-.91 3.41.962 4.64 2.066 1.848 1.324-.045 3.462-1.477 4.166-2.947 1.86-6.795.71-9.284-1.404-3.107-2.423-5.807-5.607-7.093-9.372-.898-2.87-.134-6.347 2.448-8.098.326-.267.685-.507 1.09-.632z"
	      fill="#fff"/>
</svg>
